<svg width="60" height="60" viewBox="0 0 60 60" fill="none" xmlns="http://www.w3.org/2000/svg">
<path fill-rule="evenodd" clip-rule="evenodd" d="M24.3466 0.729722C24.7854 -0.147884 25.9943 -0.256896 26.583 0.528058C29.7862 4.79897 31.6815 9.8908 32.0637 15.1877C32.1432 16.2894 31.2403 17.1861 30.1357 17.1861H29.8644C28.7599 17.1861 27.8733 16.289 27.7794 15.1885C27.4412 11.2257 26.1016 7.40846 23.8814 4.09882C23.4593 3.46972 23.38 2.66283 23.7188 1.98526L24.3466 0.729722ZM30.1356 42.8139C31.2402 42.8139 32.1268 43.711 32.2207 44.8115C32.5588 48.7743 33.8984 52.5915 36.1187 55.9012C36.5407 56.5303 36.62 57.3372 36.2813 58.0147L35.6535 59.2703C35.2147 60.1479 34.0057 60.2569 33.417 59.4719C30.2138 55.201 28.3185 50.1092 27.9363 44.8123C27.8568 43.7106 28.7598 42.8139 29.8643 42.8139H30.1356ZM0.528058 33.417C-0.256896 34.0058 -0.147884 35.2147 0.729722 35.6535L1.98526 36.2813C2.66283 36.6201 3.46972 36.5408 4.09882 36.1187C7.40846 33.8984 11.2257 32.5589 15.1885 32.2207C16.289 32.1268 17.1861 31.2402 17.1861 30.1357V29.8643C17.1861 28.7598 16.2894 27.8568 15.1877 27.9363C9.8908 28.3185 4.79897 30.2139 0.528058 33.417ZM42.8139 29.8645C42.8139 28.7599 43.711 27.8733 44.8115 27.7794C48.7743 27.4412 52.5915 26.1017 55.9012 23.8814C56.5303 23.4593 57.3372 23.38 58.0147 23.7188L59.2703 24.3466C60.1479 24.7854 60.2569 25.9943 59.4719 26.5831C55.201 29.7862 50.1092 31.6816 44.8123 32.0638C43.7106 32.1433 42.8139 31.2403 42.8139 30.1358V29.8645ZM11.5763 53.256C11.4376 54.2273 12.3695 55.0051 13.3003 54.6948L14.6321 54.2509C15.3507 54.0114 15.8652 53.3847 16.0116 52.6414C16.7819 48.7312 18.5339 45.0848 21.0969 42.0436C21.8087 41.199 21.8161 39.9377 21.0351 39.1567L20.8432 38.9648C20.0622 38.1838 18.7896 38.1794 18.0668 39.0146C14.5916 43.0303 12.3313 47.971 11.5763 53.256ZM38.965 20.8434C38.184 20.0624 38.1914 18.8011 38.9032 17.9565C41.4662 14.9153 43.2182 11.2689 43.9885 7.35862C44.1349 6.61536 44.6494 5.98871 45.368 5.74916L46.6997 5.30526C47.6306 4.99497 48.5625 5.77276 48.4238 6.74409C47.6688 12.0291 45.4085 16.9697 41.9332 20.9855C41.2104 21.8207 39.9379 21.8163 39.1569 21.0353L38.965 20.8434ZM53.2559 48.4238C54.2272 48.5625 55.005 47.6306 54.6947 46.6997L54.2508 45.368C54.0112 44.6494 53.3846 44.1349 52.6413 43.9885C48.7311 43.2182 45.0847 41.4662 42.0435 38.9032C41.1988 38.1914 39.9376 38.184 39.1565 38.965L38.9647 39.1569C38.1836 39.9379 38.1792 41.2104 39.0145 41.9332C43.0302 45.4085 47.9709 47.6688 53.2559 48.4238ZM20.8433 21.0351C20.0622 21.8161 18.801 21.8087 17.9564 21.0969C14.9152 18.5339 11.2687 16.7819 7.35849 16.0116C6.61523 15.8652 5.98858 15.3507 5.74903 14.632L5.30512 13.3003C4.99484 12.3695 5.77263 11.4376 6.74396 11.5763C12.0289 12.3313 16.9696 14.5916 20.9854 18.0668C21.8206 18.7896 21.8162 20.0622 21.0351 20.8432L20.8433 21.0351ZM30 35.3391C32.9487 35.3391 35.3391 32.9487 35.3391 30C35.3391 27.0513 32.9487 24.6608 30 24.6608C27.0513 24.6608 24.6609 27.0513 24.6609 30C24.6609 32.9487 27.0513 35.3391 30 35.3391Z" fill="#3A58F6"/>
</svg>
